PathFileType	4	(X/Y/Z)	 s09c0202.trc
DataRate	CameraRate	NumFrames	NumMarkers	Units	OrigDataRate	OrigDataStartFrame	OrigNumFrames
200	200	4	50	mm	200	1	2000
Frame#	Time	racr			lacr			c7			jug			rlel			rdr			llel			ldr			s2			lic			ric			lasi			rasi			rpsi			lpsi			rgt			lgt			rth1			rth2			rth3			rth4			rlfc			rmfc			rsh1			rsh2			rsh3			rsh4			rlmal			rmmal			rcal			rtoe			rmt5			lth1			lth2			lth4			lth3			llfc			lmfc			llmal			lmmal			lcal			lmt5			lsh1			lsh2			lsh3			lsh4			ltoe			SBIKE			LBIKE			RBIKE			
		X1	Y1	Z1	X2	Y2	Z2	X3	Y3	Z3	X4	Y4	Z4	X5	Y5	Z5	X6	Y6	Z6	X7	Y7	Z7	X8	Y8	Z8	X9	Y9	Z9	X10	Y10	Z10	X11	Y11	Z11	X12	Y12	Z12	X13	Y13	Z13	X14	Y14	Z14	X15	Y15	Z15	X16	Y16	Z16	X17	Y17	Z17	X18	Y18	Z18	X19	Y19	Z19	X20	Y20	Z20	X21	Y21	Z21	X22	Y22	Z22	X23	Y23	Z23	X24	Y24	Z24	X25	Y25	Z25	X26	Y26	Z26	X27	Y27	Z27	X28	Y28	Z28	X29	Y29	Z29	X30	Y30	Z30	X31	Y31	Z31	X32	Y32	Z32	X33	Y33	Z33	X34	Y34	Z34	X35	Y35	Z35	X36	Y36	Z36	X37	Y37	Z37	X38	Y38	Z38	X39	Y39	Z39	X40	Y40	Z40	X41	Y41	Z41	X42	Y42	Z42	X43	Y43	Z43	X44	Y44	Z44	X45	Y45	Z45	X46	Y46	Z46	X47	Y47	Z47	X48	Y48	Z48	X49	Y49	Z49	X50	Y50	Z50	
1	0.0050	506.424015	1283.204052	-107.769569	495.701767	1276.320322	-425.060610	493.154787	1297.788636	-264.989101	473.903620	1169.317344	-265.242247	500.713053	1069.337886	37.834061	681.223429	908.715113	-34.914810	477.290784	1033.621792	-562.117150	677.582621	910.110814	-464.970382	15.005698	1124.575342	-237.887890	143.349323	1121.394915	-390.078191	165.842548	1117.808287	-93.683934	190.065526	1067.996814	-371.178721	205.867509	1061.544980	-118.021901	48.187244	1151.786117	-179.937850	43.079441	1158.383411	-289.124842	130.938091	976.042187	-47.804130	105.575335	1011.699000	-437.277026	210.555081	859.302430	-47.787516	276.370777	800.910497	-54.143931	296.945742	714.201251	-60.938464	300.782216	816.315147	-76.575455	325.927680	613.963196	-90.158009	309.354012	600.925960	-187.447743	247.048188	543.762268	-62.299554	211.534466	462.332530	-78.136945	140.977512	410.475292	-79.989020	232.746813	450.796239	-109.752679	74.809512	333.103213	-83.626285	83.331024	344.546256	-162.170559	-11.808262	324.436958	-126.451534	235.322056	227.323157	-122.722480	151.051919	239.924044	-59.761430	230.159914	955.414971	-434.132113	314.904523	953.164707	-428.299212	325.682846	985.497593	-411.996128	392.845923	906.528600	-430.678907	480.508775	848.173357	-414.530728	501.705550	838.324221	-314.710118	361.932400	507.716407	-408.063671	379.738354	513.768650	-337.882353	286.791135	486.358316	-369.323973	441.757669	408.213986	-432.795779	452.463151	752.196642	-433.053395	445.913299	666.067410	-421.877142	395.441116	592.963294	-417.547721	471.018654	660.798157	-391.602340	536.311347	405.382745	-366.288279	-65.192074	852.444950	-238.794306	21.021660	84.673063	-442.151977	21.215707	83.927354	-43.701491	
2	0.0100	506.430624	1283.187102	-107.775911	495.696648	1276.321822	-425.074106	493.175205	1297.796631	-264.944645	473.920271	1169.347988	-265.236057	500.719500	1069.332630	37.810080	681.251564	908.715602	-34.910208	477.284957	1033.616137	-562.084407	677.580214	910.125896	-464.973782	15.006586	1124.571955	-237.907368	143.360054	1121.383385	-390.094386	165.862506	1117.821691	-93.721956	190.091545	1067.974035	-371.200271	205.880762	1061.556474	-118.027416	48.199465	1151.799684	-179.976833	43.078983	1158.417374	-289.152208	130.948750	976.069144	-47.798869	105.576287	1011.688106	-437.291670	210.568690	859.335553	-47.783469	276.388156	800.941005	-54.166632	296.989526	714.243481	-60.925702	300.802114	816.371621	-76.602029	325.964527	614.005085	-90.151467	309.411865	600.948318	-187.422404	247.064256	543.796750	-62.284048	211.586485	462.375491	-78.130039	140.989310	410.532112	-79.985096	232.796352	450.836885	-109.726525	74.815536	333.140288	-83.625467	83.349828	344.608580	-162.148756	-11.782657	324.525729	-126.452386	235.318152	227.335909	-122.733681	151.037574	239.956103	-59.750301	230.157075	955.386582	-434.168946	314.900711	953.130874	-428.326504	325.668401	985.462813	-412.025026	392.833293	906.486924	-430.714785	480.494630	848.107693	-414.535852	501.727778	838.326177	-314.732630	361.905242	507.659528	-408.050444	379.732267	513.723715	-337.862981	286.786888	486.290995	-369.344285	441.776356	408.179784	-432.799695	452.433079	752.149958	-433.072825	445.893444	666.025110	-421.887210	395.409019	592.901053	-417.555565	471.010607	660.755364	-391.626318	536.332282	405.365291	-366.277797	-65.196565	852.454859	-238.789375	21.013086	84.679964	-442.144972	21.236251	83.885786	-43.691897	
3	0.0150	506.448511	1283.165895	-107.768415	495.709139	1276.328964	-425.045805	493.197986	1297.806260	-264.906339	473.918482	1169.377983	-265.239634	500.695287	1069.313198	37.823065	681.230984	908.718927	-34.919309	477.277715	1033.620553	-562.077435	677.576415	910.111003	-464.944635	15.006489	1124.595427	-237.908001	143.387231	1121.375474	-390.088347	165.858659	1117.834184	-93.747006	190.114505	1067.959623	-371.199691	205.881657	1061.561377	-118.067777	48.194121	1151.804453	-179.998782	43.106399	1158.430139	-289.181766	130.949232	976.078075	-47.810522	105.592104	1011.663151	-437.289368	210.608111	859.361164	-47.799997	276.435309	801.008341	-54.147591	297.023944	714.275491	-60.924143	300.814210	816.410175	-76.603285	326.007628	614.032716	-90.133478	309.457244	600.971337	-187.416936	247.124766	543.828095	-62.276402	211.613998	462.407998	-78.119165	141.018963	410.582048	-79.986677	232.815783	450.857391	-109.705314	74.833363	333.185878	-83.625257	83.380622	344.657909	-162.166102	-11.758380	324.574220	-126.437770	235.287155	227.333466	-122.743296	151.032758	239.975686	-59.756793	230.156673	955.370556	-434.176247	314.898291	953.107324	-428.354133	325.675089	985.427479	-412.058064	392.817966	906.442107	-430.749201	480.479694	848.075760	-414.570066	501.698056	838.273346	-314.746657	361.896838	507.609700	-408.058590	379.699186	513.684620	-337.876207	286.782061	486.227614	-369.351219	441.785425	408.160528	-432.794004	452.421113	752.105928	-433.097982	445.880307	665.981415	-421.902764	395.390311	592.842683	-417.580283	470.981994	660.706920	-391.640993	536.345910	405.369521	-366.290213	-65.198550	852.450103	-238.785996	21.015485	84.691285	-442.149702	21.232752	83.897959	-43.698985	
4	0.0200	506.422703	1283.138246	-107.742348	495.716874	1276.328956	-425.041091	493.176758	1297.782127	-264.949044	473.904986	1169.392512	-265.220638	500.751361	1069.744718	38.260997	681.476446	908.590403	-35.007266	477.263673	1033.300350	-562.167979	677.439459	910.491321	-465.036152	15.072898	1124.891111	-238.030662	143.414319	1121.350346	-390.109434	165.853464	1117.937720	-94.571375	190.136869	1067.940316	-371.236233	205.877962	1061.547823	-118.066156	48.541174	1151.699675	-179.795320	43.640801	1158.572178	-289.169922	130.947536	976.081476	-47.821512	105.605852	1011.653512	-437.299611	210.631471	859.421646	-47.692021	275.430798	800.482691	-55.153944	297.045654	714.296257	-60.911220	300.842053	816.419919	-76.626829	326.365658	613.822980	-90.020183	309.511195	601.010753	-187.405248	247.133147	543.848956	-62.279202	211.789673	462.379176	-77.918806	141.200947	410.493801	-80.029791	232.860388	450.897169	-109.694160	74.794803	333.074238	-83.381874	83.382953	344.693905	-162.151897	-11.762472	324.635839	-126.442021	235.285169	227.325285	-122.736549	151.022573	239.999512	-59.741729	229.521334	953.876551	-432.826392	314.890656	953.087144	-428.389869	325.466383	985.629426	-412.051952	392.989855	906.187570	-430.748627	480.336401	847.867352	-414.566413	501.285167	838.983792	-314.824754	361.619479	507.998334	-408.143036	380.846102	512.986286	-338.495609	286.958263	486.039922	-369.172912	441.786945	408.137322	-432.793001	452.407616	752.055897	-433.110044	445.868703	665.905687	-421.988064	395.380166	592.777909	-417.582868	471.020840	660.628181	-391.259776	536.353078	405.351480	-366.295378	-65.202520	852.446466	-238.792297	21.004835	84.672194	-442.156843	21.239343	83.881990	-43.694193	
